<?xml version="1.0" standalone="no"?>
<!DOCTYPE svg PUBLIC "-//W3C//DTD SVG 20010904//EN"
 "http://www.w3.org/TR/2001/REC-SVG-20010904/DTD/svg10.dtd">
<svg version="1.0" xmlns="http://www.w3.org/2000/svg"
 width="300.000000pt" height="300.000000pt" viewBox="0 0 300.000000 300.000000"
 preserveAspectRatio="xMidYMid meet">
<metadata>
Created by potrace 1.11, written by Peter Selinger 2001-2013
</metadata>
<g transform="translate(0.000000,300.000000) scale(0.100000,-0.100000)"
fill="#000000" stroke="none">
<path d="M1425 2671 c-22 -10 -60 -21 -84 -25 -96 -15 -183 -90 -238 -206
l-36 -75 8 -110 c4 -60 8 -119 9 -130 0 -11 5 -26 9 -32 14 -22 -11 -14 -27 8
-21 31 -51 21 -49 -16 1 -17 3 -55 5 -85 4 -64 46 -133 108 -174 34 -23 37
-29 42 -84 3 -33 15 -81 27 -107 26 -60 29 -169 5 -203 -9 -13 -39 -33 -67
-46 -29 -13 -74 -40 -102 -62 -27 -21 -117 -77 -200 -125 -498 -286 -490 -281
-531 -362 -39 -77 -66 -212 -129 -657 -9 -63 -19 -130 -22 -148 l-5 -32 1412
0 1412 0 -7 36 c-3 20 -12 50 -20 68 -13 30 -44 147 -101 381 -25 106 -57 205
-124 385 -31 84 -64 139 -104 173 -29 24 -140 81 -230 117 -41 16 -127 54
-191 85 -65 30 -121 55 -125 55 -4 0 -30 15 -56 33 -50 33 -108 61 -154 72
l-25 6 25 -20 c14 -11 40 -28 58 -37 102 -49 91 -177 -31 -346 -78 -109 -142
-159 -192 -151 -21 3 -41 -1 -59 -12 -24 -16 -26 -21 -23 -91 1 -57 -2 -77
-14 -90 -15 -15 -19 -12 -43 41 -14 32 -26 69 -26 84 0 44 -15 56 -67 56 -124
2 -389 241 -410 370 -5 31 -2 36 21 45 38 14 40 13 75 -16 47 -39 119 -43 168
-9 45 30 74 32 97 6 33 -36 156 -51 156 -20 0 13 49 55 107 91 24 15 43 34 43
42 0 8 3 16 8 18 7 3 35 51 59 103 8 17 20 41 28 55 73 129 86 171 105 334 5
43 15 85 21 92 8 9 10 36 6 73 -5 55 -3 60 17 65 20 5 21 12 24 150 l3 145
-43 71 c-91 154 -201 218 -390 226 -75 3 -101 0 -133 -15z m45 -105 c0 -17 53
-14 75 4 10 8 19 10 23 4 4 -5 30 -9 57 -9 28 1 55 -2 60 -4 6 -3 15 -6 20 -6
27 -2 65 -18 65 -28 0 -6 3 -8 6 -5 7 8 72 -61 80 -84 3 -10 10 -18 15 -18 5
0 9 -9 9 -21 0 -11 4 -18 9 -14 24 14 41 -158 18 -181 -3 -3 -4 -18 -1 -32 3
-20 -2 -15 -21 20 -28 53 -56 73 -89 63 -11 -3 -34 -8 -51 -11 -80 -15 -119
-53 -101 -99 4 -12 -4 -15 -44 -15 l-50 0 0 34 c0 18 -6 38 -12 43 -27 20
-166 55 -201 51 -21 -2 -37 0 -37 5 0 4 -6 5 -12 1 -9 -6 -9 -3 0 9 10 12 12
31 7 66 -5 36 -2 59 9 83 20 42 81 109 92 100 4 -4 4 1 1 10 -4 12 1 18 24 23
16 4 29 11 29 16 0 5 5 9 10 9 6 0 10 -6 10 -14z m380 -401 c6 -8 9 -18 6 -23
-3 -5 1 -18 9 -28 14 -18 14 -17 15 9 0 18 4 26 11 21 6 -4 9 -20 6 -39 -3
-18 -1 -37 5 -43 11 -11 -11 -70 -34 -90 -8 -6 -33 -18 -54 -26 -21 -8 -31
-15 -21 -15 31 -2 83 26 104 54 l20 28 -14 -94 c-7 -52 -14 -105 -15 -118 -1
-13 -8 -26 -15 -28 -7 -3 -13 -12 -13 -19 0 -15 -26 -59 -47 -82 -7 -8 -11
-18 -8 -23 4 -5 1 -9 -4 -9 -11 0 -15 23 -11 71 1 29 -38 82 -46 62 -8 -19
-24 -15 -17 4 4 11 3 14 -5 9 -14 -8 -55 17 -45 28 17 17 -21 23 -49 7 -29
-16 -29 -16 -59 18 -25 27 -29 38 -22 60 4 14 8 68 8 118 l0 93 27 5 c37 9 46
1 54 -43 9 -50 39 -118 56 -127 10 -6 11 -5 1 6 -22 23 -14 33 9 13 16 -14 14
-9 -6 15 -19 24 -26 41 -22 57 3 13 2 26 -4 29 -5 3 -10 16 -9 28 0 12 3 16 6
10 3 -9 10 -10 23 -3 14 7 19 5 23 -10 7 -28 55 -27 65 1 l8 20 18 -20 c15
-16 16 -21 5 -25 -43 -13 -66 -13 -97 0 -43 17 -48 14 -22 -14 15 -15 28 -20
48 -17 15 3 36 7 47 8 31 4 52 20 59 45 4 12 4 21 -1 20 -4 -1 -30 6 -58 16
-27 10 -57 20 -65 23 -11 3 -9 8 10 18 33 19 104 19 120 0z m-357 -9 c9 -7 17
-21 17 -31 0 -14 -3 -15 -14 -6 -8 6 -18 11 -22 10 -20 -5 -61 13 -61 27 0 18
55 18 80 0z m-21 -57 c17 -9 18 -13 7 -20 -8 -5 -9 -9 -4 -9 6 0 11 -18 12
-40 2 -32 -3 -43 -24 -60 -28 -22 -93 -27 -138 -10 -27 10 -55 62 -55 102 1
22 2 21 28 -9 28 -35 27 -35 104 -7 10 3 23 19 30 35 15 33 13 32 40 18z m-98
-166 c34 -4 53 -1 81 15 l35 21 0 -22 c0 -12 -12 -45 -26 -74 -28 -55 -74
-107 -74 -83 0 9 -6 8 -20 -5 -12 -11 -20 -31 -20 -52 0 -18 -4 -33 -10 -33
-5 0 -7 -7 -4 -15 4 -11 2 -13 -9 -9 -9 3 -13 13 -9 26 4 16 2 19 -8 13 -10
-6 -12 -1 -8 19 3 14 1 26 -3 26 -13 0 -22 47 -13 62 5 7 7 25 5 40 -1 16 2
28 8 28 6 0 11 4 11 10 0 5 -7 6 -17 3 -11 -4 -14 -3 -9 5 4 7 16 12 27 12 11
0 17 5 14 10 -4 6 -11 8 -16 5 -5 -4 -17 -1 -26 4 -12 7 -14 10 -4 11 11 0 11
3 0 17 -8 10 -1 8 17 -6 18 -13 52 -26 78 -28z m-307 -15 c-3 -7 -5 -2 -5 12
0 14 2 19 5 13 2 -7 2 -19 0 -25z m513 -218 c13 -9 13 -10 0 -10 -8 0 -22 5
-30 10 -13 9 -13 10 0 10 8 0 22 -5 30 -10z m-164 -22 c4 -6 3 -8 -2 -5 -6 3
-16 2 -24 -4 -13 -7 -13 -9 0 -9 19 0 27 -65 9 -76 -15 -9 -29 14 -29 52 0 42
29 70 46 42z m168 -2 c61 -5 75 -11 62 -23 -10 -10 -142 -10 -151 -1 -11 11 3
38 17 33 7 -2 39 -7 72 -9z m152 -60 c-3 -28 -6 -52 -6 -53 0 -2 -7 -3 -15 -3
-8 0 -15 -5 -15 -11 0 -16 -28 -40 -34 -30 -4 5 -2 21 4 36 5 14 10 28 10 29
0 1 -36 1 -80 -2 -83 -5 -134 7 -144 34 -4 10 5 9 34 -6 49 -25 58 -25 36 -1
-17 18 -15 19 60 16 72 -2 79 0 108 26 17 15 35 25 39 22 5 -3 6 -28 3 -57z
m-317 -63 c0 -25 -1 -26 -9 -8 -12 27 -12 35 0 35 6 0 10 -12 9 -27z m151
-252 c0 -6 -4 -12 -9 -15 -5 -3 -7 -15 -4 -27 5 -17 2 -20 -13 -17 -10 2 -18
10 -16 16 1 7 -5 15 -14 19 -13 5 -10 9 12 19 36 16 44 16 44 5z m-70 -486
c10 -12 10 -18 0 -30 -25 -30 -61 -7 -46 30 3 8 12 15 19 15 8 0 20 -7 27 -15z
m110 -210 c15 -18 6 -45 -14 -45 -18 0 -35 29 -29 48 6 16 28 15 43 -3z m0
-280 c17 -20 5 -45 -20 -45 -23 0 -35 22 -26 45 7 19 30 19 46 0z"/>
<path d="M1468 2533 c7 -3 16 -2 19 1 4 3 -2 6 -13 5 -11 0 -14 -3 -6 -6z"/>
<path d="M2010 2091 c0 -6 6 -11 14 -11 8 0 17 -6 20 -12 3 -7 5 -4 3 7 -2 20
-37 35 -37 16z"/>
</g>
</svg>
