<?xml version="1.0" standalone="no"?>
<!DOCTYPE svg PUBLIC "-//W3C//DTD SVG 20010904//EN"
 "http://www.w3.org/TR/2001/REC-SVG-20010904/DTD/svg10.dtd">
<svg version="1.0" xmlns="http://www.w3.org/2000/svg"
 width="683.000000pt" height="683.000000pt" viewBox="0 0 683.000000 683.000000"
 preserveAspectRatio="xMidYMid meet">
<metadata>
Created by potrace 1.11, written by Peter Selinger 2001-2013
</metadata>
<g transform="translate(0.000000,683.000000) scale(0.100000,-0.100000)"
fill="#000000" stroke="none">
<path d="M100 6802 c5 -19 3 -40 -6 -60 -12 -28 -18 -32 -54 -32 l-40 0 0
-1372 c1 -1185 3 -1370 15 -1348 10 17 14 60 14 140 0 63 2 125 5 138 10 47
18 62 27 56 6 -3 8 -8 6 -11 -3 -2 1 -20 9 -39 15 -35 21 -194 9 -214 -9 -15
60 -78 93 -86 62 -15 62 -12 62 -298 0 -415 0 -478 -5 -906 -6 -425 -10 -563
-20 -695 -3 -44 -8 -116 -10 -160 -3 -44 -8 -91 -11 -105 -3 -14 -8 -41 -11
-60 -3 -19 -9 -40 -15 -47 -5 -7 -7 -16 -4 -21 3 -5 -1 -20 -9 -35 -7 -14 -11
-28 -7 -31 3 -3 0 -6 -6 -6 -6 0 -9 -7 -6 -15 4 -8 1 -15 -6 -15 -6 0 -9 -4
-6 -9 3 -5 -1 -14 -9 -21 -7 -6 -12 -17 -9 -24 3 -7 -7 -18 -21 -26 -15 -8
-24 -19 -20 -28 3 -10 -3 -12 -23 -10 -22 2 -28 9 -33 38 -4 19 -7 -310 -8
-732 l-1 -768 1379 0 1379 0 7 58 c6 56 45 240 66 315 5 21 15 35 20 31 5 -3
17 0 26 7 14 12 13 14 -8 20 -45 13 -72 10 -65 -6 8 -21 -24 -85 -42 -85 -9 0
-12 -6 -8 -16 5 -14 4 -15 -8 -5 -11 9 -15 8 -19 -3 -3 -8 -14 -15 -24 -14
-26 0 -66 -10 -72 -19 -9 -12 -123 -15 -116 -4 7 12 -56 25 -90 19 -22 -5 -23
-3 -13 10 11 13 10 14 -7 6 -11 -5 -36 -9 -57 -9 -20 0 -34 -3 -31 -8 4 -6
-34 -11 -74 -10 -7 1 -13 -2 -13 -7 0 -9 -59 -6 -82 5 -10 4 -15 11 -12 16 3
5 0 9 -5 9 -6 0 -11 6 -11 14 0 8 -9 18 -20 21 -11 4 -18 11 -14 16 3 6 0 16
-6 24 -7 8 -8 15 -3 15 18 0 8 45 -12 57 -12 8 -15 12 -6 13 10 0 11 3 3 13
-12 14 2 79 23 107 6 8 17 27 25 42 7 15 22 30 32 34 11 3 17 8 14 11 -3 3 6
19 19 35 14 16 23 34 19 39 -3 5 2 9 11 9 10 0 36 20 58 44 23 24 53 49 65 55
13 7 21 15 18 18 -10 11 15 44 41 54 14 5 23 13 19 16 -3 4 8 13 25 20 26 11
35 11 47 1 13 -10 14 -10 8 0 -5 8 -1 11 14 9 22 -4 53 -40 43 -51 -3 -3 -1
-6 5 -6 7 0 12 -5 12 -11 0 -5 -4 -7 -10 -4 -5 3 -10 1 -10 -5 0 -6 -5 -8 -12
-4 -6 4 -8 3 -5 -4 4 -5 3 -21 -2 -34 -7 -17 -10 -18 -10 -5 -1 21 -17 23 -25
2 -3 -8 0 -15 7 -15 7 0 4 -5 -6 -11 -9 -6 -14 -15 -11 -21 5 -7 2 -9 -8 -5
-10 3 -19 -3 -27 -19 -6 -13 -15 -24 -20 -24 -15 0 -6 -31 16 -54 11 -12 34
-23 49 -24 16 -1 31 -7 32 -13 3 -6 9 -6 18 2 8 6 14 8 14 4 0 -4 6 -3 13 3 8
7 26 8 50 3 23 -6 35 -5 31 1 -4 6 6 8 22 5 16 -2 37 -1 48 2 21 8 36 44 93
221 16 48 22 56 51 65 27 8 32 13 27 30 -30 105 -35 448 -12 820 9 149 19 329
22 400 15 310 42 620 66 750 6 33 23 87 38 120 26 56 110 169 139 188 9 6 9
13 2 27 -7 13 -7 21 0 25 6 4 10 3 9 -2 -6 -37 6 -40 41 -13 l25 19 -24 -4
c-17 -3 -24 1 -28 15 -3 11 -12 20 -20 20 -9 0 -13 6 -9 15 3 8 2 15 -3 15 -4
0 -8 6 -9 13 -1 6 -6 33 -11 59 -6 26 -8 78 -4 115 9 102 9 356 0 376 -4 9 -5
23 -1 29 4 7 7 32 5 57 -1 26 -4 98 -6 162 -2 63 -9 127 -14 142 -7 17 -9 73
-6 140 20 402 20 467 11 1033 -6 430 -6 441 13 466 11 14 28 24 38 23 39 -4
81 -27 91 -50 18 -39 58 -58 130 -63 106 -8 183 -7 237 1 112 17 111 17 141
-14 28 -29 29 -35 35 -157 6 -132 7 -128 -43 -252 -6 -14 -12 -83 -15 -155 -4
-112 -1 -146 21 -247 13 -65 30 -125 36 -135 9 -15 10 -13 6 12 -12 71 -17
426 -7 509 9 76 16 99 52 158 78 132 226 252 318 257 29 1 32 -1 22 -13 -11
-13 3 -14 106 -13 107 2 118 0 117 -15 -2 -22 5 -22 34 -2 18 13 22 13 22 1 0
-11 18 -14 90 -11 52 2 90 -1 90 -7 0 -5 4 -9 10 -9 5 0 7 8 3 18 -6 15 -4 15
18 -3 13 -11 30 -26 38 -35 11 -13 12 -12 6 10 -7 25 -7 25 19 -4 23 -25 28
-27 43 -15 13 11 15 11 9 1 -5 -9 0 -21 13 -33 12 -11 21 -29 21 -40 0 -11 4
-17 10 -14 7 4 7 -3 0 -20 -13 -34 -13 -35 8 -35 14 0 15 -2 2 -10 -8 -5 -11
-12 -7 -17 10 -9 77 -11 77 -2 0 8 33 5 48 -5 6 -4 12 -2 12 3 0 21 19 10 39
-23 28 -44 27 -50 -14 -87 -22 -20 -35 -42 -36 -58 l-1 -26 -8 25 -8 25 -1
-28 c-1 -16 -5 -26 -11 -22 -6 3 -10 -1 -10 -10 0 -9 4 -13 10 -10 6 3 10 1
10 -4 0 -6 -4 -11 -9 -11 -5 0 -10 -17 -10 -37 0 -53 -6 -96 -15 -111 -5 -8
-1 -10 11 -6 13 4 12 1 -4 -12 -23 -17 -33 -51 -11 -38 6 4 8 3 4 -4 -3 -6 -2
-14 4 -17 6 -4 8 -16 4 -27 -4 -14 -2 -18 5 -14 18 12 31 -42 25 -101 -5 -41
-4 -57 6 -63 11 -7 11 -14 2 -35 -7 -15 -8 -24 -2 -20 16 10 12 0 -11 -26 -17
-20 -18 -24 -5 -29 10 -3 12 -10 7 -19 -5 -7 -13 -11 -18 -8 -5 3 -10 -6 -11
-21 -1 -14 -6 -28 -11 -31 -14 -10 -32 -51 -26 -61 3 -6 2 -10 -3 -10 -16 0 9
-69 27 -73 13 -4 13 -5 -1 -6 -10 0 -18 -8 -18 -17 0 -8 4 -13 9 -9 5 3 13 0
17 -6 4 -7 3 -9 -3 -6 -6 4 -13 -6 -17 -23 -3 -17 -10 -30 -15 -30 -5 0 -7 10
-3 22 3 14 1 19 -6 14 -6 -4 -11 -24 -10 -44 3 -77 0 -83 -28 -76 -18 5 -30 1
-45 -14 -10 -12 -19 -26 -19 -32 0 -5 -5 -10 -10 -10 -6 0 -10 -6 -9 -12 3
-29 -2 -49 -11 -43 -6 3 -10 -3 -10 -14 0 -12 -4 -21 -9 -21 -5 0 -8 -8 -7
-17 0 -10 -4 -17 -10 -16 -6 1 -11 -8 -11 -21 -1 -37 -31 -90 -62 -109 -30
-18 -57 -24 -31 -7 13 8 12 10 -3 10 -10 0 -20 -6 -23 -14 -3 -8 -12 -17 -20
-20 -9 -3 -12 -1 -9 4 3 6 2 10 -4 10 -5 0 -15 -13 -22 -30 -12 -26 -18 -29
-47 -25 -26 3 -32 2 -24 -8 15 -18 1 -34 -26 -32 -16 1 -19 -2 -12 -9 14 -14
12 -26 -5 -26 -8 0 -15 -4 -15 -10 0 -5 -9 -14 -20 -20 -11 -6 -20 -7 -19 -3
4 25 -3 36 -11 16 -11 -27 -23 -29 -43 -8 -8 8 -17 11 -21 8 -3 -4 -6 0 -6 8
0 9 -3 10 -8 3 -15 -22 -61 -25 -81 -5 -16 16 -20 17 -25 5 -4 -10 -2 -12 6
-8 7 5 8 3 3 -5 -9 -16 -24 -2 -30 28 -3 16 0 21 9 18 7 -3 13 1 13 9 0 7 -4
11 -9 8 -14 -9 -9 11 8 32 8 10 13 13 9 7 -3 -7 -1 -13 4 -13 15 0 14 15 -3
29 -16 14 -59 17 -100 8 -34 -7 -60 19 -60 63 -1 17 -6 24 -17 22 -13 -2 -16
5 -13 30 1 18 0 27 -3 21 -8 -20 -23 -15 -32 10 -5 14 -4 25 3 29 7 5 5 8 -6
8 -10 0 -17 3 -17 8 3 20 -2 42 -14 54 -7 7 -16 21 -20 31 -4 10 -11 15 -17
12 -5 -3 -7 0 -4 8 3 8 -1 17 -9 20 -8 3 -21 22 -27 43 -10 29 -14 34 -21 22
-13 -24 -17 -68 -24 -262 -4 -128 -10 -188 -21 -215 -20 -45 -28 -101 -25
-166 1 -27 3 -94 4 -148 l2 -98 25 6 c14 4 52 21 85 39 51 28 62 39 73 74 8
23 20 42 26 42 7 0 43 43 80 95 36 52 70 95 74 95 4 0 29 -12 56 -26 45 -24
81 -38 126 -49 8 -2 35 -9 60 -15 52 -14 190 -19 197 -7 2 4 8 5 13 2 5 -3 11
-1 14 4 3 5 24 7 46 4 24 -3 40 -2 40 4 0 6 10 10 23 9 14 -1 22 5 22 16 0 10
5 22 11 28 8 8 13 6 17 -9 3 -12 1 -21 -4 -21 -5 0 -9 -4 -9 -10 0 -13 11 -12
30 1 11 8 12 12 3 16 -19 7 -16 27 7 48 11 10 17 21 15 25 -3 4 2 11 10 14 12
4 14 0 10 -22 -5 -24 -4 -24 4 -5 5 12 19 24 29 28 28 8 37 34 11 32 -10 -1
-19 -5 -19 -9 0 -4 -7 -5 -16 -1 -15 5 -15 7 0 15 15 8 14 12 -6 29 -13 11
-18 18 -12 15 7 -3 17 1 24 9 10 13 14 12 29 -7 17 -20 18 -20 18 -2 0 10 -7
24 -15 30 -13 9 -11 15 13 42 29 33 41 52 72 112 10 19 20 37 23 40 6 5 32 60
36 73 1 4 2 8 3 10 1 1 5 22 7 47 3 25 7 52 8 60 1 8 7 32 14 52 12 33 16 37
41 32 30 -6 148 45 124 53 -7 3 -20 -3 -29 -11 -19 -20 -54 -21 -54 -2 0 7 -7
19 -15 26 -11 9 -12 16 -5 25 8 9 6 14 -5 19 -8 3 -15 13 -15 22 0 13 3 14 14
5 10 -8 22 -8 46 0 22 8 34 8 39 1 4 -6 17 0 36 15 25 22 29 32 27 71 -1 25
-10 63 -21 84 -17 35 -18 42 -5 66 8 15 14 41 14 59 0 39 30 63 80 63 26 0 31
3 20 10 -27 18 -58 10 -104 -25 -48 -36 -57 -35 -30 3 25 36 71 55 118 48 28
-4 35 -3 20 3 -21 9 -21 10 -6 103 7 51 14 112 15 136 1 30 5 42 16 42 8 0 11
3 8 6 -3 4 -2 14 3 23 5 10 11 48 14 87 3 38 12 121 21 184 9 63 19 150 22
193 l6 77 -44 0 c-111 0 -200 59 -190 125 5 32 54 93 84 106 28 12 133 8 170
-7 33 -12 50 -63 52 -164 2 -52 10 -133 19 -180 8 -47 20 -137 26 -200 6 -63
14 -131 17 -150 9 -54 11 -1136 2 -1295 -4 -77 -9 -204 -12 -282 l-4 -143 171
-86 c94 -47 175 -89 181 -93 5 -5 33 -16 62 -25 28 -10 57 -24 64 -33 7 -8 51
-40 98 -72 70 -46 97 -58 154 -68 78 -13 90 -20 90 -58 0 -15 6 -29 13 -32 8
-3 12 -9 9 -13 -3 -4 3 -11 12 -14 19 -8 9 -21 -28 -40 -23 -11 -78 -82 -79
-101 0 -5 10 5 23 22 27 39 68 64 74 45 3 -6 8 -10 12 -7 10 5 56 -100 53
-117 -1 -5 1 -8 5 -8 5 0 8 -15 9 -32 0 -18 4 -51 8 -73 14 -80 17 -141 6
-125 -7 11 -9 0 -5 -40 2 -30 7 -209 10 -397 3 -187 8 -352 10 -365 12 -55 21
-408 15 -518 -2 -30 -3 -77 -2 -105 1 -27 2 -57 2 -65 0 -8 1 -24 4 -35 2 -11
-2 -26 -8 -34 -8 -11 -8 -13 2 -7 7 4 12 1 12 -9 0 -9 -4 -14 -8 -11 -5 3 -5
-18 0 -47 4 -29 10 -113 13 -187 3 -74 8 -145 11 -157 5 -25 -21 -47 -68 -58
-30 -8 -38 -25 -12 -25 9 0 12 -5 8 -12 -4 -6 -6 -34 -5 -61 2 -48 -20 -94
-40 -82 -11 7 5 -46 22 -73 17 -27 5 -51 -38 -72 -16 -8 -49 -32 -73 -53 l-44
-37 65 -2 c35 0 77 -2 93 -3 23 -2 31 4 42 29 l15 31 -7 -44 c-4 -31 -3 -42 5
-37 6 4 11 14 11 22 0 8 5 14 10 14 18 0 11 -85 -9 -109 -22 -25 -29 -19 -35
34 -7 51 -16 57 -17 9 0 -48 -8 -106 -13 -112 -3 -2 -42 4 -88 13 -110 23
-251 30 -308 15 -25 -6 -75 -18 -112 -26 -38 -7 -86 -23 -108 -34 -23 -11 -45
-18 -50 -15 -6 3 -10 46 -10 95 l0 89 40 46 c42 48 49 72 28 93 -9 9 -13 50
-14 129 l0 116 27 10 c25 10 26 14 32 106 4 53 14 134 23 181 11 56 18 157 21
295 4 239 10 342 18 355 4 6 2 10 -4 10 -6 0 -8 6 -5 13 3 8 -2 14 -11 14 -13
0 -20 -12 -13 -19 2 -2 -7 -17 -20 -35 -14 -20 -19 -34 -12 -38 8 -5 8 -11 0
-20 -6 -8 -10 -35 -9 -62 2 -26 0 -95 -4 -153 -4 -58 -9 -154 -12 -215 -7
-134 -14 -177 -27 -190 -7 -7 -9 19 -5 83 l4 92 -32 28 c-28 23 -34 35 -38 79
-2 34 0 50 6 46 6 -4 7 -1 2 7 -18 29 -12 110 17 220 16 63 34 120 40 127 6 7
8 13 5 13 -3 0 1 24 8 53 8 28 19 97 25 152 13 126 24 174 65 305 27 85 32
117 29 170 -2 36 -5 93 -6 128 -1 35 -7 67 -14 73 -15 12 -19 6 -29 -46 -5
-22 -10 -47 -12 -55 -1 -8 -10 -96 -18 -195 -9 -99 -25 -218 -36 -265 -11 -47
-29 -130 -39 -185 -37 -195 -52 -260 -64 -270 -7 -5 -11 -15 -9 -20 2 -6 -3
-20 -12 -30 -11 -15 -15 -16 -15 -5 0 9 -6 5 -15 -10 -9 -15 -15 -19 -15 -10
0 12 -4 11 -15 -4 -14 -18 -15 -18 -15 -2 0 9 -4 14 -10 11 -5 -3 -10 -2 -10
3 0 6 -8 9 -17 8 -14 -1 -17 6 -15 32 1 21 -2 31 -8 27 -6 -4 -10 -3 -9 2 1 4
-1 16 -6 26 -5 12 -2 22 8 30 14 11 14 13 -1 27 -14 13 -15 13 -10 -1 4 -9 1
-16 -7 -16 -7 0 -10 8 -7 19 2 10 -1 18 -8 18 -7 0 -9 8 -5 21 5 15 4 19 -4
15 -6 -4 -11 0 -11 9 0 9 -5 13 -11 9 -8 -4 -9 1 -4 16 5 15 4 20 -4 16 -12
-8 -10 -106 2 -106 5 0 5 -10 2 -21 -5 -13 -3 -19 3 -15 5 3 12 -1 16 -9 3 -8
1 -15 -3 -15 -5 0 -11 -7 -14 -14 -4 -10 -1 -13 9 -9 12 4 13 1 4 -22 -9 -23
-8 -26 4 -22 12 5 13 1 5 -20 -11 -29 -3 -45 11 -23 13 20 12 8 0 -24 -6 -16
-6 -26 0 -26 5 0 5 -12 -1 -30 -12 -33 -3 -114 19 -185 5 -16 7 -35 5 -42 -2
-6 4 -24 14 -40 14 -20 14 -25 3 -18 -13 7 -13 6 -2 -7 7 -8 10 -23 6 -31 -3
-9 -2 -22 2 -29 5 -7 10 -22 11 -32 2 -11 11 -29 21 -40 9 -11 11 -16 4 -12
-10 6 -11 1 -6 -21 10 -41 22 -62 76 -127 49 -58 50 -60 45 -115 -12 -127 -37
-544 -37 -604 0 -16 -3 -26 -8 -23 -4 2 -8 -4 -8 -15 0 -17 8 -19 93 -19 75 0
93 3 93 15 0 44 62 101 96 88 7 -2 25 2 42 11 16 8 40 16 54 18 14 2 33 10 42
17 11 9 46 14 104 15 72 0 91 -3 110 -19 12 -11 22 -25 22 -32 0 -7 4 -13 9
-13 5 0 7 -9 4 -20 -4 -16 -9 -18 -26 -8 -20 10 -19 9 2 -18 13 -16 18 -30 12
-32 -6 -2 -11 -8 -11 -13 0 -5 111 -9 265 -9 l265 0 0 3415 0 3415 -1125 0
-1124 0 -10 -37 c-8 -28 -7 -44 4 -67 50 -109 58 -165 33 -241 -11 -33 -23
-45 -77 -75 -71 -40 -87 -60 -48 -60 43 0 84 -20 97 -48 7 -15 15 -55 18 -90
4 -58 3 -64 -16 -69 -12 -3 -19 -10 -16 -15 3 -5 13 -7 21 -4 8 4 99 9 201 12
186 6 187 6 222 -18 44 -30 58 -72 62 -185 2 -48 7 -91 13 -95 5 -4 7 -10 3
-13 -3 -4 -14 3 -25 14 -10 11 -36 27 -57 36 -21 9 -55 27 -76 41 -21 14 -58
31 -82 39 -23 7 -54 17 -68 23 -48 20 -65 25 -74 23 -4 -1 -14 3 -22 10 -7 6
-30 13 -51 16 -64 9 -251 5 -272 -7 -11 -5 -31 -10 -44 -10 -21 0 -25 4 -22
27 4 35 51 73 93 74 17 1 37 3 42 4 6 1 35 3 67 4 89 2 59 8 -72 15 -189 10
-347 26 -359 35 -7 6 -20 2 -35 -11 l-25 -19 13 -100 c14 -114 8 -135 -48
-178 -30 -23 -33 -24 -29 -6 2 11 -4 27 -13 35 -24 22 -59 91 -59 118 0 13 5
32 10 42 8 15 4 29 -20 66 -16 27 -30 56 -30 66 0 10 -11 45 -25 78 -14 33
-25 75 -25 94 0 18 -7 47 -15 62 -25 49 -19 88 19 122 49 43 112 53 321 51
119 0 190 3 210 11 27 11 28 13 10 20 -11 4 -66 3 -122 -3 -101 -10 -102 -10
-142 16 -39 26 -45 27 -243 33 -216 6 -262 13 -296 43 -30 25 -39 73 -18 94 9
8 16 18 16 21 0 3 -519 6 -1153 6 l-1153 0 0 -47 c1 -60 -34 -124 -63 -116
-15 4 -20 18 -25 67 -4 34 -4 69 0 79 6 16 -25 17 -514 17 l-521 0 9 -28z
m1250 -221 c17 -5 29 -18 37 -45 16 -46 9 -77 -24 -108 -23 -21 -33 -23 -129
-23 -93 0 -106 2 -125 22 -39 39 -24 100 34 140 26 18 46 22 107 21 41 0 86
-3 100 -7z m815 -137 c70 -92 23 -224 -80 -224 -16 0 -33 13 -54 42 -41 56
-44 123 -6 156 14 12 25 26 25 31 0 10 45 29 71 30 9 1 29 -15 44 -35z m-901
-456 c-3 -4 -2 -14 3 -20 4 -7 8 -17 9 -23 1 -5 7 -29 13 -52 11 -41 15 -68
47 -308 15 -112 15 -338 0 -353 -3 -3 -1 -11 5 -19 7 -7 7 -13 2 -13 -12 0
-14 -499 -2 -521 4 -9 10 -27 13 -40 3 -13 12 -49 21 -79 9 -30 17 -100 19
-155 2 -76 7 -107 20 -128 19 -29 31 -33 41 -17 11 17 41 11 62 -12 43 -48 45
-78 39 -475 -4 -207 -8 -379 -10 -382 -2 -3 -7 -130 -11 -281 -3 -151 -9 -293
-12 -315 -2 -22 -7 -53 -9 -69 -5 -43 -14 -66 -25 -66 -6 0 -8 4 -5 8 7 12
-33 44 -45 37 -5 -4 -7 -11 -3 -16 3 -5 0 -8 -8 -7 -7 2 -12 -5 -12 -14 1 -10
-2 -15 -7 -12 -8 5 -14 -33 -10 -64 1 -8 -3 -19 -8 -26 -6 -7 -13 -53 -16
-102 -6 -101 -13 -167 -22 -204 -10 -42 -68 -105 -124 -133 -48 -25 -54 -26
-75 -12 -13 8 -28 23 -33 33 -12 23 -17 311 -6 377 12 73 12 103 -1 169 -18
89 -18 378 0 419 34 77 45 170 18 153 -5 -3 -16 0 -25 7 -12 9 -17 34 -19 105
-3 91 -2 93 26 115 l28 23 -15 49 c-9 28 -23 70 -32 95 -15 40 -16 92 -11 460
4 321 8 435 21 505 13 75 16 160 14 500 -1 226 1 433 5 460 3 28 9 70 12 95 9
78 15 113 24 165 26 141 33 156 76 153 18 -1 30 -6 28 -10z m-593 -388 c2 -14
4 -22 12 -45 11 -36 22 -112 33 -245 2 -36 7 -301 11 -590 6 -579 4 -558 71
-617 l37 -32 -1 -298 c0 -268 -13 -1045 -19 -1198 -1 -33 -5 -150 -9 -260 -10
-307 -12 -322 -52 -381 -43 -64 -69 -88 -87 -81 -27 10 -31 70 -42 777 -6 385
-11 552 -21 765 -27 579 -20 1942 11 2104 2 9 7 37 11 64 5 37 11 47 25 47 11
0 20 -4 20 -10z m5946 -252 c-2 -13 -4 -5 -4 17 -1 22 1 32 4 23 2 -10 2 -28
0 -40z m-1 -136 c-3 -26 -6 -76 -7 -112 -2 -63 -2 -64 -9 -20 l-6 45 -6 -35
c-3 -19 -5 9 -5 64 0 59 3 93 8 85 6 -10 9 -8 9 9 0 13 4 20 10 17 6 -4 8 -27
6 -53z m-1472 -286 c-7 -31 -20 -34 -27 -6 -3 11 -1 20 4 20 5 0 9 8 9 17 0
12 3 14 11 6 5 -5 7 -22 3 -37z m-66 -147 c-2 -20 2 -34 10 -37 11 -3 13 4 9
32 -6 42 1 45 26 10 21 -28 19 -59 -3 -59 -8 0 -21 -4 -28 -9 -7 -4 -19 -2
-28 5 -17 14 -16 14 -37 -26 l-16 -30 -1 53 c0 29 4 51 9 48 5 -3 16 5 25 19
22 34 37 31 34 -6z m-23 -189 c-3 -5 1 -11 7 -13 7 -3 3 -6 -8 -6 -14 -1 -24
7 -28 22 -11 43 -6 53 14 28 11 -12 18 -27 15 -31z m-173 -144 c7 4 8 2 4 -5
-9 -13 -26 -5 -25 12 0 9 2 8 6 -1 2 -6 10 -9 15 -6z m-2651 -62 c52 -47 51
-40 47 -544 -2 -223 -35 -801 -49 -854 -13 -49 -59 -156 -68 -157 -37 -5 -52
-5 -62 1 -19 12 -29 94 -25 217 2 65 -1 150 -5 188 -20 172 -21 259 -5 337 18
85 21 158 7 158 -16 0 -19 53 -4 77 16 24 12 86 -9 168 -16 59 -20 282 -7 338
6 26 23 60 38 76 25 26 30 28 74 21 26 -4 56 -15 68 -26z m-361 -120 c10 -18
12 -80 6 -286 -4 -145 -9 -315 -11 -378 -3 -116 -13 -229 -22 -242 -2 -5 -9
-8 -15 -8 -6 0 -8 3 -5 7 4 3 3 11 -2 17 -17 20 -30 174 -36 416 -7 285 -7
272 -6 393 1 91 2 98 23 106 31 11 53 3 68 -25z m2194 -218 c-6 -16 -24 -23
-24 -8 0 10 22 33 27 28 2 -2 1 -11 -3 -20z m30 -12 c3 -8 2 -12 -4 -9 -6 3
-10 10 -10 16 0 14 7 11 14 -7z m2401 -971 c9 -39 -2 -39 -19 -2 -9 19 -23 45
-33 59 -16 23 -15 23 14 -4 17 -15 34 -39 38 -53z m29 24 c9 -45 2 -42 -22 8
-20 42 -20 44 -3 33 11 -6 22 -25 25 -41z m13 -414 c-3 -10 -5 -2 -5 17 0 19
2 27 5 18 2 -10 2 -26 0 -35z m0 -45 c-3 -8 -6 -5 -6 6 -1 11 2 17 5 13 3 -3
4 -12 1 -19z m-5303 -642 c62 -11 84 -54 84 -165 0 -105 11 -220 23 -243 23
-44 31 -192 15 -283 -5 -27 -10 -120 -10 -205 -2 -132 -5 -166 -25 -228 -23
-74 -25 -144 -6 -249 5 -28 -4 -129 -19 -198 -2 -11 -12 -59 -21 -107 -14 -68
-23 -92 -45 -113 -15 -14 -33 -23 -41 -20 -13 5 -36 82 -45 150 -2 11 -8 47
-14 80 -10 52 -8 255 4 329 1 10 -1 40 -5 67 -14 85 -19 169 -25 389 -7 264
-6 319 8 395 6 33 11 125 10 204 l0 145 34 34 c18 18 37 31 42 28 5 -3 21 -7
36 -10z m-557 -344 c22 -80 27 -202 12 -278 -7 -38 -13 -72 -14 -76 0 -3 -3
-10 -7 -14 -5 -4 -8 -16 -8 -26 0 -12 -5 -17 -12 -13 -7 4 -6 1 2 -7 9 -7 17
-24 18 -38 2 -26 9 -65 12 -65 1 0 3 -18 6 -40 5 -57 -5 -110 -25 -134 -18
-20 -18 -20 -32 6 -14 27 -16 79 -6 233 2 47 1 110 -4 140 -14 82 -11 228 5
288 17 62 16 58 16 79 0 31 23 -3 37 -55z m4928 -520 c-3 -3 -11 0 -18 7 -9
10 -8 11 6 5 10 -3 15 -9 12 -12z m862 -474 c-3 -7 -5 -2 -5 12 0 14 2 19 5
13 2 -7 2 -19 0 -25z"/>
<path d="M6592 5200 c0 -14 2 -19 5 -12 2 6 2 18 0 25 -3 6 -5 1 -5 -13z"/>
<path d="M1210 206 c7 -7 14 -6 21 1 9 9 7 12 -9 10 -14 -1 -18 -5 -12 -11z"/>
<path d="M4063 6353 c9 -2 23 -2 30 0 6 3 -1 5 -18 5 -16 0 -22 -2 -12 -5z"/>
<path d="M4790 5689 c0 -11 4 -18 10 -14 5 3 7 12 3 20 -7 21 -13 19 -13 -6z"/>
<path d="M4885 5380 c3 -5 8 -10 11 -10 2 0 4 5 4 10 0 6 -5 10 -11 10 -5 0
-7 -4 -4 -10z"/>
<path d="M4600 5301 c-14 -5 -52 -14 -85 -21 -33 -7 -80 -20 -105 -30 -43 -18
-45 -20 -48 -64 -4 -52 3 -55 61 -31 48 20 54 19 31 -6 -17 -20 -16 -19 17 2
20 13 35 27 33 30 -10 18 99 25 138 10 13 -5 42 -15 66 -22 34 -10 41 -16 36
-31 -3 -12 0 -18 10 -18 14 0 18 -6 15 -27 0 -3 6 -10 14 -15 18 -10 47 -1 48
16 4 51 4 94 -1 91 -3 -2 -12 10 -19 26 -28 63 -144 113 -211 90z"/>
<path d="M3875 5286 c-43 -18 -56 -38 -64 -100 -9 -63 7 -78 31 -29 26 54 138
61 247 15 41 -17 78 -29 83 -26 12 8 9 47 -5 65 -14 18 -91 47 -162 60 -66 13
-76 13 -100 5 -16 -6 -17 -6 -5 3 23 16 8 20 -25 7z"/>
<path d="M4876 5151 c-4 -5 -2 -12 3 -15 5 -4 12 -2 15 3 4 5 2 12 -3 15 -5 4
-12 2 -15 -3z"/>
<path d="M4691 5126 c12 -17 12 -19 0 -12 -8 5 -16 4 -21 -4 -6 -10 -15 -10
-45 0 -47 16 -117 7 -161 -21 -38 -23 -60 -54 -45 -64 5 -3 13 4 16 16 4 11
26 29 48 39 l42 19 6 -35 c7 -42 23 -55 64 -52 22 2 34 11 43 31 l14 29 20
-22 c19 -21 19 -50 -2 -50 -5 0 -10 -4 -10 -10 0 -14 18 -12 62 7 50 22 49 46
-3 103 -23 25 -35 36 -28 26z m-121 -56 c0 -5 -4 -10 -10 -10 -5 0 -10 5 -10
10 0 6 5 10 10 10 6 0 10 -4 10 -10z"/>
<path d="M3928 5099 c-26 -12 -48 -29 -51 -40 -7 -26 0 -24 53 12 l45 31 3
-34 c4 -40 15 -54 47 -60 30 -6 65 17 65 43 0 22 11 24 28 7 21 -21 35 12 15
34 -17 19 -39 25 -28 8 3 -5 -10 -3 -29 5 -48 20 -92 18 -148 -6z m102 -29 c0
-5 -4 -10 -10 -10 -5 0 -10 5 -10 10 0 6 5 10 10 10 6 0 10 -4 10 -10z"/>
<path d="M4370 5091 c-7 -15 -7 -21 0 -21 12 0 25 28 17 36 -3 3 -10 -4 -17
-15z"/>
<path d="M4623 4990 c-30 -12 -29 -18 2 -12 14 2 25 8 25 13 0 5 -1 9 -2 8 -2
0 -13 -4 -25 -9z"/>
<path d="M5260 4778 c-15 -68 -52 -118 -89 -118 -19 0 -38 -17 -28 -26 5 -5
90 38 112 56 12 10 31 137 22 146 -2 2 -10 -24 -17 -58z"/>
<path d="M4415 4668 c6 -41 5 -48 -15 -58 -16 -9 -25 -9 -33 -1 -20 20 -59 12
-94 -19 -39 -35 -57 -37 -96 -11 -32 21 -68 17 -93 -10 -9 -10 -23 -19 -31
-19 -7 0 -18 -10 -23 -22 -7 -18 -9 -19 -9 -5 -1 24 -17 21 -35 -5 -9 -12 -16
-17 -16 -11 0 7 5 15 10 18 6 4 8 11 4 16 -9 15 -37 -29 -30 -47 3 -9 1 -12
-4 -9 -6 3 -10 -1 -10 -10 0 -13 4 -14 21 -4 21 11 21 10 15 -48 -7 -60 7
-107 19 -68 4 11 10 30 15 41 5 12 6 31 3 43 -4 17 1 23 26 32 25 9 31 15 26
33 -2 11 3 5 12 -14 15 -32 17 -33 21 -12 2 12 7 22 12 22 4 0 6 -9 3 -20 -3
-11 0 -20 6 -20 6 0 11 9 11 20 0 34 41 19 66 -25 17 -31 31 -28 38 7 5 23 9
29 15 20 4 -7 6 -24 3 -38 -3 -19 0 -24 15 -24 10 0 25 6 31 12 9 9 15 10 20
2 4 -6 23 -14 42 -18 19 -4 49 -13 65 -21 28 -13 25 -13 -60 -15 -49 -1 -112
-2 -140 -2 l-50 0 45 -8 c25 -5 78 -9 118 -9 70 -1 72 -2 72 -27 0 -30 14 -28
91 10 30 15 56 21 77 18 30 -4 32 -2 32 25 0 16 5 34 11 40 9 9 6 19 -10 39
-11 15 -21 23 -21 18 0 -5 -4 -2 -10 6 -9 15 -90 22 -90 8 0 -4 -9 1 -20 12
-11 11 -24 20 -30 20 -5 0 -9 3 -9 8 4 21 -2 32 -13 26 -7 -4 -3 3 10 15 27
27 28 67 1 106 l-20 30 6 -47z m-215 -163 c10 -13 9 -15 -9 -15 -12 0 -21 6
-21 15 0 8 4 15 9 15 5 0 14 -7 21 -15z m137 -67 c-3 -8 -6 -5 -6 6 -1 11 2
17 5 13 3 -3 4 -12 1 -19z"/>
<path d="M4062 4392 c-8 -6 0 -16 28 -35 22 -14 40 -22 40 -17 0 5 -4 12 -10
15 -18 11 -11 25 13 26 21 0 21 1 2 9 -26 11 -57 12 -73 2z"/>
<path d="M4600 4319 c0 -5 5 -7 10 -4 6 3 10 8 10 11 0 2 -4 4 -10 4 -5 0 -10
-5 -10 -11z"/>
<path d="M4430 4216 c0 -2 7 -6 15 -10 8 -3 15 -1 15 4 0 6 -7 10 -15 10 -8 0
-15 -2 -15 -4z"/>
<path d="M4965 4199 c-4 -6 -5 -12 -2 -15 2 -3 7 2 10 11 7 17 1 20 -8 4z"/>
<path d="M4345 4189 c-16 -5 -50 -7 -75 -5 -30 2 -51 -2 -62 -12 -12 -10 -18
-11 -18 -4 0 7 -6 12 -14 12 -9 0 -14 -14 -14 -46 -1 -42 0 -45 20 -38 16 5
20 3 15 -9 -4 -11 2 -17 22 -22 28 -6 109 0 143 11 20 6 32 34 15 34 -15 1
-51 49 -43 57 3 4 6 1 6 -6 0 -8 6 -9 18 -3 9 5 23 7 30 5 6 -3 12 3 12 12 0
9 5 13 10 10 6 -3 10 -1 10 4 0 13 -33 13 -75 0z m-55 -101 c0 -4 -11 -8 -24
-8 -14 0 -27 4 -30 8 -3 5 8 8 25 8 16 0 29 -3 29 -8z"/>
<path d="M4525 4157 c-4 -10 -5 -21 -1 -24 10 -10 18 4 13 24 -4 17 -4 17 -12
0z"/>
<path d="M5003 4138 c2 -18 11 -48 18 -65 11 -28 11 -44 -4 -115 -9 -45 -23
-85 -29 -89 -7 -5 -13 -32 -14 -63 -1 -36 -11 -73 -28 -108 -28 -56 -34 -127
-9 -107 7 6 16 8 21 5 13 -8 110 223 153 362 6 18 14 30 18 27 12 -7 6 105 -7
137 -8 19 -23 30 -49 37 -66 19 -76 15 -70 -21z"/>
<path d="M4060 4115 c-10 -12 -10 -15 4 -15 9 0 16 7 16 15 0 8 -2 15 -4 15
-2 0 -9 -7 -16 -15z"/>
<path d="M4735 3910 c-3 -5 -1 -10 4 -10 6 0 11 5 11 10 0 6 -2 10 -4 10 -3 0
-8 -4 -11 -10z"/>
<path d="M4052 3841 c-34 -62 -38 -76 -22 -66 6 4 6 -3 0 -21 -6 -16 -7 -31
-1 -38 5 -6 13 -36 18 -68 8 -49 8 -55 -6 -51 -12 3 -11 1 3 -11 13 -10 17
-24 14 -44 -2 -16 2 -34 9 -41 7 -6 13 -24 13 -39 0 -44 38 -150 67 -190 42
-58 46 -60 30 -17 -40 109 -51 189 -53 380 -2 189 -10 255 -30 262 -6 2 -25
-23 -42 -56z"/>
<path d="M5356 3783 c10 -46 10 -61 0 -138 -4 -38 -4 -55 2 -45 5 8 13 47 17
85 3 39 9 80 12 92 3 15 -2 25 -17 33 -20 11 -21 10 -14 -27z"/>
<path d="M3364 3474 c-5 -2 -28 -8 -52 -14 -23 -6 -40 -15 -37 -20 3 -4 2 -10
-3 -12 -11 -4 -52 -73 -52 -88 0 -6 53 16 118 51 167 88 166 87 95 86 -33 0
-64 -2 -69 -3z"/>
<path d="M6188 3323 c11 -16 31 -38 45 -51 l24 -23 6 31 c7 33 -9 70 -31 70
-7 0 -10 -5 -6 -11 5 -8 1 -8 -14 0 -35 19 -44 12 -24 -16z"/>
<path d="M3835 3300 c-10 -11 -24 -20 -30 -20 -7 0 -16 -7 -19 -16 -5 -14 -4
-15 9 -4 23 19 18 -4 -5 -25 -11 -10 -18 -20 -15 -23 2 -3 -2 -10 -10 -16 -8
-6 -19 -25 -24 -43 l-9 -32 41 3 c52 3 128 41 134 67 3 10 10 19 15 19 5 0 0
11 -11 25 -11 14 -23 39 -26 55 -8 35 -25 38 -50 10z"/>
<path d="M4864 3232 c-11 -45 -67 -80 -144 -89 -66 -8 -53 -20 23 -22 19 -1
30 -8 37 -23 5 -13 9 -18 9 -12 1 6 8 11 16 11 13 0 15 -12 13 -62 -2 -59 -5
-66 -72 -162 -39 -56 -114 -152 -167 -215 -104 -123 -132 -161 -124 -171 3 -4
2 -5 -1 -2 -4 2 -27 -30 -52 -73 -48 -82 -80 -129 -121 -177 -14 -16 1 -6 35
23 60 51 102 94 77 78 -7 -4 -13 -5 -13 -2 0 9 64 40 75 37 5 -1 7 0 4 4 -6 5
26 46 81 105 8 8 24 32 35 53 11 21 32 51 47 67 15 17 25 30 22 30 -2 0 23 40
56 89 33 49 60 93 60 97 0 5 11 21 25 36 14 15 25 30 25 34 0 7 30 41 71 83
15 14 30 36 33 48 8 27 32 47 40 34 7 -11 46 -2 65 16 11 11 2 28 -55 103 -38
49 -73 91 -80 94 -6 2 -15 -12 -20 -32z m-27 -164 c-3 -8 -6 -5 -6 6 -1 11 2
17 5 13 3 -3 4 -12 1 -19z"/>
<path d="M5221 3092 c-12 -89 -7 -162 11 -162 5 0 6 -6 2 -12 -4 -7 -4 -10 1
-6 7 6 8 258 1 265 -2 2 -9 -37 -15 -85z"/>
<path d="M4610 3150 c0 -14 15 -19 29 -11 9 6 7 10 -8 14 -12 3 -21 1 -21 -3z"/>
<path d="M4040 3134 c0 -2 4 -14 9 -28 8 -18 15 -23 31 -19 12 3 24 12 27 19
3 8 10 11 17 7 6 -4 6 0 -2 9 -8 10 -27 16 -47 15 -19 -1 -35 -2 -35 -3z"/>
<path d="M4249 3034 l-24 -13 32 -1 c33 0 52 14 30 23 -7 3 -24 -1 -38 -9z"/>
<path d="M4354 2967 c-1 -80 18 -461 23 -467 2 -3 10 3 18 13 10 14 12 69 9
239 -3 216 -4 222 -26 245 l-23 23 -1 -53z"/>
<path d="M4278 2916 c3 -26 -1 -43 -14 -59 l-19 -21 25 15 c29 19 37 56 17 83
-12 16 -13 14 -9 -18z"/>
<path d="M4224 2926 c-9 -23 0 -51 17 -54 19 -4 32 23 24 49 -7 22 -33 25 -41
5z"/>
<path d="M4257 2194 c-10 -10 -9 -52 2 -59 5 -3 22 -7 38 -9 28 -3 29 -2 24
33 -5 29 -11 37 -31 39 -14 2 -29 0 -33 -4z"/>
<path d="M4225 2170 c-6 -9 11 -50 21 -50 2 0 0 9 -6 20 -6 11 -8 25 -5 30 3
6 4 10 1 10 -3 0 -8 -4 -11 -10z"/>
<path d="M5894 1755 c1 -8 8 -21 16 -28 12 -10 12 -9 2 4 -6 9 -9 18 -6 21 3
3 1 9 -4 12 -6 3 -9 -1 -8 -9z"/>
<path d="M2998 1703 c7 -3 16 -2 19 1 4 3 -2 6 -13 5 -11 0 -14 -3 -6 -6z"/>
<path d="M5699 1563 c-13 -16 -12 -17 4 -4 16 13 21 21 13 21 -2 0 -10 -8 -17
-17z"/>
<path d="M3246 1551 c-3 -5 1 -14 9 -21 13 -10 15 -9 15 9 0 21 -14 28 -24 12z"/>
<path d="M4176 1412 c-21 -20 18 -48 50 -35 14 5 20 34 7 32 -5 -1 -10 0 -13
1 -16 6 -39 7 -44 2z"/>
<path d="M6324 1331 c4 -6 0 -14 -8 -17 -21 -8 -20 -24 1 -24 15 0 15 -1 0
-18 -18 -20 -22 -32 -9 -32 12 0 31 49 21 56 -6 4 -6 11 1 19 8 10 8 15 -1 21
-8 4 -9 3 -5 -5z"/>
<path d="M3134 1279 c-21 -26 -23 -48 -9 -76 8 -15 15 -35 15 -44 0 -42 80
-200 133 -263 l41 -49 -45 7 c-24 4 -69 9 -99 11 l-55 3 50 -14 c28 -8 87 -17
133 -21 72 -5 82 -4 82 11 0 9 -6 16 -13 16 -15 0 -67 51 -67 65 0 5 -6 16
-14 24 -8 9 -39 64 -70 122 -41 77 -58 123 -64 164 -5 45 -10 55 -18 44z"/>
<path d="M3254 1268 c5 -35 34 -98 45 -98 15 0 14 12 -8 63 -22 51 -41 69 -37
35z"/>
<path d="M6297 1210 c-3 -13 -1 -18 6 -13 7 4 6 -1 -2 -10 -7 -9 -11 -17 -7
-17 3 0 1 -11 -4 -25 -8 -21 -7 -25 8 -25 13 0 14 -2 3 -9 -10 -7 -11 -13 -2
-27 6 -11 11 -17 11 -14 4 19 10 39 19 68 5 18 6 32 1 32 -5 0 -7 14 -3 30 4
23 2 30 -10 30 -8 0 -17 -9 -20 -20z"/>
<path d="M6303 1045 c0 -8 3 -13 5 -10 3 3 12 -1 21 -7 10 -8 9 -4 -3 10 -23
26 -23 26 -23 7z"/>
<path d="M6364 1042 c4 -7 4 -12 -1 -12 -12 0 -32 -49 -23 -55 5 -3 13 2 18
11 6 11 11 13 16 5 4 -6 2 -11 -5 -11 -6 0 -9 -8 -6 -20 3 -11 1 -23 -4 -26
-5 -3 -9 0 -9 7 0 7 -3 9 -6 6 -4 -4 -2 -13 5 -20 13 -17 -13 -115 -33 -123
-7 -3 -13 -11 -13 -19 0 -15 69 -31 86 -21 12 8 2 216 -11 233 -6 7 -8 19 -5
28 4 8 1 17 -5 21 -7 4 -8 3 -4 -4z"/>
<path d="M6310 975 c0 -5 5 -17 10 -25 5 -8 10 -10 10 -5 0 6 -5 17 -10 25 -5
8 -10 11 -10 5z"/>
<path d="M6337 913 c-4 -3 -7 -11 -7 -17 0 -6 5 -5 12 2 6 6 9 14 7 17 -3 3
-9 2 -12 -2z"/>
<path d="M6316 858 c3 -5 10 -6 15 -3 13 9 11 12 -6 12 -8 0 -12 -4 -9 -9z"/>
<path d="M4120 565 c0 -18 24 -30 39 -21 16 10 1 36 -20 36 -10 0 -19 -7 -19
-15z"/>
<path d="M4181 553 c0 -12 -8 -29 -17 -37 -8 -9 -11 -16 -5 -16 15 0 33 38 28
58 -4 13 -5 11 -6 -5z"/>
<path d="M3127 550 c4 -4 35 -12 68 -19 33 -7 70 -15 83 -18 15 -4 22 -1 22
10 0 10 -20 17 -72 25 -78 12 -113 13 -101 2z"/>
<path d="M3005 384 c54 -16 172 -54 193 -62 6 -2 12 0 12 6 0 5 -42 21 -92 35
-107 29 -194 46 -113 21z"/>
</g>
</svg>
